<?xml version="1.0" encoding="utf-8"?>
<!-- Generator: Adobe Illustrator 24.3.0, SVG Export Plug-In . SVG Version: 6.00 Build 0)  -->
<svg version="1.1" id="Слой_1" xmlns="http://www.w3.org/2000/svg" xmlns:xlink="http://www.w3.org/1999/xlink" x="0px" y="0px"
	 viewBox="0 0 2048 1112" style="enable-background:new 0 0 2048 1112;" xml:space="preserve">
<style type="text/css">
	.st0{fill:#FFFFFF;stroke:#FFFFFF;stroke-width:0.25;stroke-miterlimit:10;}
	.st1{fill:#C6C6C6;stroke:#FFFFFF;stroke-width:0.25;stroke-miterlimit:10;}
	.st2{fill:#FDFDFD;}
	.st3{fill:#FC0606;}
	.st4{display:none;fill:#FDFDFD;}
</style>
<g>
	<path class="st0" d="M855.27,653.23l0.02,0.01c-0.28,5.46-3.72,10-4.36,15.38c-0.89,7.52,2.69,10.91,10.08,9.18
		c8.53-2,14.33-8.12,20.43-13.77c2.46-2.28,3.83-7.34,7.8-5.91c4.1,1.47,2.27,6.4,2.79,9.89c0.81,5.4,0.53,11.52,6.45,14.43
		c5.67,2.79,11.77,4.7,18.22,3.8c21.77-3.05,43.51-6.28,65.26-9.39c6.6-0.94,13.22-1.46,19.71,0.7c4,1.33,5.36,4.47,3.39,8.05
		c-2.05,3.73-4.34,7.25-7.2,10.48c-15.67,17.74-30.92,35.85-48,52.29c-1.06,1.02-2.18,2.04-2.36,3.65
		c-0.14,0.11-0.27,0.23-0.41,0.34c0.09,0.09,0.18,0.18,0.27,0.27c0.12-0.13,0.24-0.26,0.36-0.4c1.81-0.91,3.67-1.71,5.41-2.73
		c19.38-11.38,35.05-27.14,50.79-42.84c7.12-7.1,11.56-15.83,15.38-24.87c2.53-6,0.78-9.73-5.05-12.46
		c-6.41-2.99-13.36-3.41-20.15-2.58c-15.6,1.91-31.19,4.03-46.88,4.96c-11.26,0.67-22.32,3.28-33.7,2.96
		c-5.92-0.17-8.83-3.04-10.27-8.19c-0.54-1.95-1.05-3.97-1.13-5.98c-0.22-5.74-3.67-8.74-8.68-10.17
		c-4.71-1.35-7.72,1.66-10.31,4.95c-2.93,3.72-6.53,6.57-10.83,8.44c-3.64,1.59-5.45,0.15-4.79-3.74c0.72-4.21,2.47-8.12,4.22-12.01
		c6.05-13.51,12.04-27.05,18.02-40.59c0.81-1.82,2.04-3.87,0.33-5.68c-2.75-2.92-13.21-0.09-14.15,3.76
		c-2.07,8.51-5.11,16.66-9.4,24.26c-7.76,13.73-17.69,25.56-31.52,33.62c-2.14,1.25-4.82,2.91-7.27,1.01
		c-2.64-2.05-1.55-5.11-0.85-7.73c1.82-6.83,5.23-13.04,8.03-19.48c4.43-10.18,9.11-20.25,13.5-30.45c2.12-4.92,1.45-5.68-4.03-5.7
		c-4.08-0.02-8.16-0.03-12.24-0.01c-1.08,0.01-2.44-0.11-2.77,1.24c-0.34,1.38,0.82,1.88,1.92,2.22c2.94,0.9,2.95,2.87,2.02,5.27
		c-1.07,2.76-1.96,5.59-3.14,8.3c-6.17,14.27-12.49,28.47-18.56,42.78c-2.11,4.97-4.29,10.85,0.14,15.1
		c4.52,4.33,9.8,0.72,14.43-1.47C837.2,669.16,846.21,661.15,855.27,653.23z"/>
	<path class="st0" d="M517.52,751.3c-6.64-1.98-12.77-5.53-19.69-5.82c-27.93-1.19-55.88-1.1-83.83-1.14
		c-5.8-0.01-10.13,3.43-14.99,5.99C438.61,750.57,478.04,752.77,517.52,751.3z"/>
	<path class="st0" d="M462.38,385.2c-2.94,0.2-5.96,0.06-8.81,0.67c-5.97,1.29-7.01,5.22-3.43,10.14
		c3.24,4.46,8.16,6.86,11.91,10.64c1.22,1.23,2.63,1.06,4.07,0.28c5.02-2.75,10.22-5.21,15.02-8.29c3.9-2.5,4.07-6.59,3.1-10.83
		c-0.93-4.09-4.06-3.6-6.99-3.58C472.27,384.26,467.44,386.22,462.38,385.2z"/>
	<path class="st1" d="M907.87,560.26c-5.73,0.43-10.06,2.04-13.92,5.78c-3.97,3.84-8.9,6.55-14.54,7.62
		c-7.08,1.34-11.87-1.99-11.95-9.05c-0.05-4.34-1.54-5.19-5.3-3.83c-1.55,0.56-3.21,1.03-4.85,1.12c-3.71,0.18-4.45,2.26-4.4,5.53
		c0.1,7.05,2.78,10.49,10.16,12.41C876.35,583.3,897.39,574.24,907.87,560.26z"/>
	<path class="st2" d="M54.1,901.04c650.2,0,1300.39,0,1950.59-0.03c11.56,0,10.02,1.54,10.02-9.99
		c0.03-239.65,0.03-479.3,0.03-718.95c0.34,0.24,1.16-0.56,1.12,0.56c-0.05,1.48-0.01,2.96-0.01,4.44
		c0,239.97-0.02,479.95,0.14,719.92c0,4.78-1.31,5.26-5.55,5.25c-650.45-0.11-1300.89-0.1-1951.34-0.17
		C57.48,902.08,55.34,903.36,54.1,901.04z"/>
	<path class="st2" d="M433.38,373.28c3.79-6.02,10.31-8.23,16.3-10.58c10.33-4.05,20.92-7.64,31.66-10.38
		c7.63-1.95,15.68-2.45,23.58-3.17c22.82-2.08,45.68-2.6,67.15,6.86c15.96,7.02,30.11,17.23,34.65,35.17
		c4.78,18.9,5.22,37.75-5.91,55.52c-13.92,22.21-35,34.57-58.3,44.01c-15.44,6.25-31.35,11.38-46.78,17.65
		c-13.94,5.66-26.62,13.65-38.44,23.05c-12.05,9.59-22.99,20.39-34.4,30.67c-3.16,2.85-2.65,4.19,1.26,5.37
		c11.77,3.56,23.74,5.62,36.05,5.98c3.47,0.1,5.47-1.72,7.56-3.87c17.06-17.58,35.13-33.99,55.63-47.55
		c8.83-5.84,17.9-11.41,27.97-14.7c7.47-2.44,12.6-7.73,17.98-12.64c35.1-32.01,72.34-61.22,112.49-86.69
		c8.34-5.29,17.63-8.62,26.47-12.88c37.64-18.16,77.03-31.72,117.08-43.29c10.02-2.9,20.99-1.01,31.52-0.36
		c6.52,0.41,12.58,1.86,18.28,5.49c7.16,4.56,7.6,8.2,1.46,13.64c-10.17,9.03-22.46,14.32-34.49,19.99
		c-15.27,7.2-30.2,15-44.92,23.22c-5.81,3.25-5.76,9.14-0.03,12.6c2.77,1.67,5.92,2.24,9.06,2.32c13.15,0.33,26.33,0.77,39.26-2.41
		c19.91-4.91,40.24-5.59,60.58-6.4c20.73-0.83,41.49-0.74,62.08,1.41c11.68,1.22,23.22,4.66,34.55,8.01
		c18.09,5.35,34.61,13.97,49.01,26.32c3.23,2.77,6.54,5.45,9.58,8.42c5.42,5.28,8.32,12.12,5.89,19.15
		c-2.44,7.04-8.79,11.57-16.12,13.25c-8.89,2.04-18.01,1.52-27.1,0.59c-7.36-0.75-14.8-1.34-22.08,0.67
		c-9.38,2.58-12.34,12.09-5.49,18.94c5.73,5.73,12.15,10.8,18.52,15.83c4.2,3.32,6.32,7.9,7.73,12.57c1.27,4.2-2.55,7.08-5.29,9.62
		c-2.69,2.49-6.05,4.26-9.12,6.33c-5.94,4-6.47,9.3-1.97,14.98c4.18,5.28,9.16,9.69,14.35,13.84c4.07,3.26,7.76,6.87,11.45,10.52
		c5.5,5.43,5.77,10.82,0.34,16.41c-4.63,4.77-9.71,9.09-14.59,13.61c-6.86,6.35-8.42,13.12-0.99,19.35
		c1.18,0.99,2.92,2.59-0.29,3.44c-4.56,1.21-15.7-3.83-17.89-8.06c-3.18-6.18-1.32-12.24,5.77-17.62
		c4.43-3.37,8.72-6.77,12.24-11.18c2.32-2.9,2.67-5.35,0.83-8.53c-5.01-8.71-12.33-15.08-20.33-20.88c-2.68-1.94-5.2-4.2-7.44-6.63
		c-4.8-5.22-4.68-13.55,0.33-18.56c3-3,6.32-5.69,9.68-8.29c7.08-5.47,7.92-12.59,2.26-19.65c-4.61-5.75-10.66-9.8-16.81-13.52
		c-13.04-7.88-12.7-18.03,0.41-25.68c8.2-4.79,17.26-6.63,26.4-7.86c7.31-0.98,14.77-0.87,22.15-1.29
		c6.43-0.37,11.32-4.12,11.78-9.69c0.41-4.96-2.48-8.81-5.99-11.92c-12.44-11.02-27.32-17.49-42.88-22.74
		c-22.79-7.7-46.37-8.33-70.12-9.16c-33.43-1.17-66.03,3.37-98.56,10.3c-13.02,2.77-26.73,3.93-39.79,1.76
		c-13.96-2.32-23.6-8.99-18.77-23.01c1.97-5.73,6.81-9.94,11.67-13.75c10.83-8.5,23.96-12.4,36.13-18.2
		c9.7-4.62,19.49-9.04,29.18-13.7c1.96-0.94,3.67-2.47,5.36-3.88c1.74-1.44,2.17-3.34,1.45-5.52c-0.81-2.44-2.73-2.58-4.89-2.68
		c-13.74-0.69-26.94,2.43-39.83,6.45c-32.38,10.11-64.36,21.42-94.65,36.87c-26.45,13.49-50.9,30.28-75.55,46.74
		c-19.46,13-37.42,27.8-55.08,43.04c-0.93,0.8-1.71,1.79-2.73,2.87c2.55,1.36,4.9,1.55,7.25,1.78
		c15.24,1.49,21.55,14.36,13.74,27.86c-4.66,8.06-11.43,14.01-18.93,19.23c-20.42,14.21-43.25,22.58-67.51,27.29
		c-3.44,0.67-5.49,2.23-7.28,5.17c-12.7,20.85-24.19,42.49-39.95,61.36c-8.22,9.85-17.2,18.84-27.84,26.09
		c-1.5,1.02-2.96,2.09-5.69,4.02c10.18,0.13,18.5-0.91,25.7-6.54c2.63-2.05,5.27-4.08,7.89-6.14c1.68-1.33,3.68-2.63,5.48-0.99
		c2.21,2.02,0.51,4.29-0.97,5.82c-5.58,5.75-11.88,10.62-19.36,13.69c-8.25,3.39-16.81,4.56-25.56,2.26
		c-5.39-1.42-10.62-0.63-15.89,0.43c-3.77,0.76-7.42,0.48-10.77-1.43c-1.62-0.92-3.02-2.36-2.84-4.45c0.18-2.1,1.77-3.19,3.59-3.83
		c3.98-1.39,8.12-1.15,12.08-0.3c4.3,0.93,8.01,0.15,11.67-2.06c14.16-8.58,23.87-21.38,33.13-34.62c1.49-2.13,0.49-3.27-1.46-4.31
		c-6.43-3.43-13.33-5.52-20.32-7.36c-3.51-0.93-5.49,1.38-7.62,3.46c-16.78,16.32-34.82,31.05-55.08,42.9
		c-23.85,13.95-49.53,22.25-77.1,24.93c-11.67,1.14-23.29,1.4-34.93,0.3c-3.78-0.36-3.46,1.39-3.01,3.9
		c2.21,12.3,8.61,21.98,18.69,29.16c18.53,13.21,39.62,17.58,61.98,17.78c24.85,0.23,48.31-4.32,68.95-19.01
		c6.54-4.66,11.46-10.49,11.45-19.22c0-3.48-0.9-6.56-2.91-9.36c-1.21-1.69-2.7-3.54-0.3-5.24c2.01-1.43,3.83-0.24,5.5,1.14
		c6.5,5.35,8.77,16.14,4.98,24.35c-4.01,8.67-11.34,14.06-19.33,18.52c-16.94,9.46-35.23,13.99-54.58,15.49
		c-17.77,1.38-35.16,0.07-52.21-4.69c-16.39-4.58-31.25-12.07-40.9-26.85c-13.09-20.06-11.65-44.62,2.61-64.5
		c16.23-22.63,39.98-33.43,65.7-40.66c30.05-8.45,60.67-8.72,91.43-4.77c4.34,0.56,7.71-0.18,10.91-3.6
		c8.05-8.61,16.49-16.85,25.32-25.79c-10.32-1.33-20.05-2.16-29.4-4.93c-4.97-1.47-9.79-3.44-14.75-4.91
		c-3.26-0.96-3.25-2.42-1.33-4.65c0.24-0.28,0.36-0.66,0.61-0.93c16.4-17.65,33.39-34.73,53.04-48.79
		c20.24-14.49,43.47-22.76,66.75-31.01c23.22-8.22,42.61-22.19,56.98-42.44c6.45-9.09,6.86-20.14,8.5-30.67
		c0.64-4.07,1.32-8.08,0.42-12.54c-2.93-14.55-13.7-21.1-25.42-27.24c-14.6-7.65-30.39-9.95-46.51-11.37
		c-30.24-2.66-58.89,3.38-86.58,15.09c-0.85,0.36-1.76,0.57-2.63,0.85C435.31,375.65,434.34,374.47,433.38,373.28z M276.5,686.61
		c13.77,0.19,26.04-1.54,38.12-4.5c40.41-9.91,72.42-33.8,102.11-61.49c0.78-0.73,1.98-1.54,1.48-2.72
		c-0.58-1.38-2.15-1.18-3.43-1.3c-19.91-1.92-39.77-3.04-59.73-0.12c-24.11,3.53-47.01,10.32-67.43,23.95
		c-14.52,9.7-24.95,22.45-28.21,40.21c-0.61,3.29-0.09,4.57,3.41,5.2C267.82,686.74,272.8,686.38,276.5,686.61z M517.08,566.56
		c1.46,1.01,2.51,0.41,3.54,0.15c20.83-5.35,40.31-13.82,58.13-25.82c7.49-5.05,15.1-10.31,18.39-19.44c2.16-6,0.2-10.51-5.63-13.13
		c-5.76-2.58-11.42-2.07-17.25,0.14c-17.88,6.8-30.87,19.37-41.59,34.67C527.3,550.8,521.51,558.21,517.08,566.56z M491.48,578.83
		c-5.11,1.11-10.24,1.06-15.37,1.15c-1.81,0.03-3.1,1.01-4.3,2.22c-9.62,9.7-19.21,19.44-28.92,29.05c-2.75,2.72-1.29,3.39,1.4,4.15
		c5.71,1.61,11.45,3.52,15.85,7.58c3.48,3.21,4.77,1.41,6.51-1.48c7.35-12.15,14.83-24.23,22.15-36.4
		C489.88,583.3,491.9,581.84,491.48,578.83z M480.73,572.39c10.38,1.86,15.74-0.2,21.25-7.77c9.59-13.17,19.61-25.99,31.4-37.33
		c0.93-0.89,2.48-1.64,1.72-4.12C514.5,537.11,497.14,553.93,480.73,572.39z"/>
	<path class="st2" d="M1462.6,678.93c7.81-1.03,13.41-5.82,18.56-11.17c2.35-2.44,4.78-3.96,8.23-3.5c1.59,0.21,3.56-0.4,4.31,1.63
		c0.68,1.84-0.65,3.06-1.76,4.34c-10.18,11.71-23.03,17.48-38.55,17.35c-3.81-1.7-7.61-3.4-11.41-5.11
		c-10.7-15.07-7.78-30.84-2.04-46.53c6.29-17.16,16.21-32.35,26.84-47.09c12.57-17.42,27.04-33.26,41.43-49.16
		c0.9-0.99,2.86-1.93,1.53-3.57c-0.94-1.17-2.76-0.82-4.23-0.64c-1.6,0.2-2.52,1.45-3.57,2.48c-12.71,12.43-24.23,25.95-35.59,39.58
		c-13.48,16.18-26.38,32.86-39.82,49.07c-8.83,10.65-18.19,20.86-27.31,31.27c-0.33,0.35-0.67,0.7-1,1.05c0,0,0.13-0.1,0.13-0.1
		c-5.51,3.59-10.31,7.97-14.42,13.1c-8.2,4.95-15.49,11.21-23.82,16.01c-25.26,14.57-52.13,21.37-81.33,17.6
		c-1.09-0.14-2.21-0.02-3.32-0.02c-6.53-1.94-13.06-3.87-19.58-5.81c-15.37-7.27-27.07-18.07-33.2-34.27
		c-0.88-3.93-1.77-7.86-2.65-11.79c0.91-6.46-1.12-12.87-0.6-19.27c1.07-13.16,4.66-25.62,10.57-37.51
		c3.81-7.66,9.02-14.31,13.74-21.33c2.25-1.38,4.01-3.22,5.25-5.55c1.41-1.18,2.88-2.3,4.21-3.56c16.2-15.21,34.94-26.01,56.6-31.13
		c6.58-1.55,11.07-4.2,12.87-10.77c1.91-2.38,4.36-4.42,4.88-7.68c6.27-4.53,11.59-10.23,18.4-14.13
		c19.01-10.9,39.09-10.98,59.82-6.83c14.75,2.95,28.89,7.97,43.33,11.97c3.42,2.36,7.36,3.29,11.32,4.19
		c3.66,1.46,7.31,2.92,10.97,4.39c5.99,1.85,11.99,3.7,17.98,5.55c2.62,0.84,5.24,1.65,7.85,2.54c2.32,0.79,4.45,1.39,6.63-0.65
		c7.78-7.25,15.68-14.37,23.53-21.54c3.86-2.72,7.7-5.46,10.91-8.97c6.15-4.4,12.19-8.95,18.46-13.17
		c13.81-9.29,27.77-18.4,44.38-22.02c11.4-2.48,21.75-1.29,28.69,9.65c0.88,1.39,2.13,1.86,3.67,2.11
		c7.65,1.25,13.71,5.18,18.51,11.17c1.09,3.05,2.19,6.09,3.28,9.14c2.64,26.57-14.98,42.27-39.89,51.81
		c-18.34,7.02-37.36,6.67-56.42,3.96c-9.15-1.3-18.24-3-27.31-4.73c-2.71-0.52-4.55,0.22-6.44,2.07
		c-25.36,24.81-48.35,51.55-66.24,82.31c-7.17,12.33-13.57,25.17-12.9,40.11c0.16,3.46,0.18,7.15,4.07,9.01
		C1451.35,679.93,1455.78,681.41,1462.6,678.93z M1537.81,504.19c-9.21,7.05-17.42,15.14-24.51,24.56
		c12.35-4.57,20.13-15.13,29.74-23.25c4.71-2.78,8.97-6.14,12.94-9.89c1.29-0.71,2.66-1.31,3.87-2.14
		c18.69-12.78,38.67-22.25,62.48-24.04c-6.71-4.73-13.47-4.68-20.19-3.33c-16.94,3.39-31.15,12.47-44.88,22.35
		c-2.49,1.79-5.6,3.06-6.69,6.37C1545.17,496.39,1541.7,500.57,1537.81,504.19z M1328.96,581.06c1.7,2.64,2.84,5.87,6.65,6.29
		c2.26,3.62,6.17,4.52,9.79,5.78c6.45,2.25,12.77,0.99,19.09-0.87c1.49-0.44,3.62-0.89,4.39,1.12c0.75,1.96-1.03,3.02-2.43,3.84
		c-3.88,2.25-7.97,3.62-12.58,3.92c-8.01,0.52-14.57-3.66-21.74-5.89c-1.58-3.02-4.47-4.6-7.13-6.42
		c-2.48-4.49-5.81-8.44-7.45-13.48c-2.44-7.51-3.1-15.14-2.67-22.91c0.25-4.53-1.57-5.4-5.64-4.36c-7.01,1.8-13.75,4.34-20.2,7.5
		c-10.1,4.95-19.91,10.44-27.76,18.75c-2.86,1.54-5.66,3.14-6.75,6.51c-2.23,0.32-3.39,2.14-4.74,3.58
		c-18.03,19.27-26.24,41.79-22.5,68.23c0.45,4.24,1.95,8.11,4.17,11.73c8.81,15.87,21.94,25.54,40.16,27.92
		c7.43,2.93,15.18,2.01,22.86,1.83c3.55,0.67,6.97-0.42,10.44-0.78c30.56-3.13,56.88-15.81,80.02-35.58
		c8.43-6.29,16.17-13.27,22.07-22.09c0.65-0.4,0.95-0.93,0.62-1.69l0.09-0.32c2.87,0.52,3.77-2.01,5.08-3.56
		c3.11-3.66,5.92-7.57,8.88-11.36c21.01-27,42.06-53.97,65.78-78.73c2.3-2.4,7.24-4.48,5.75-7.84c-1.29-2.91-6.29-3.15-9.98-3.59
		c-5.68-3.15-12.03-4.38-18.12-6.36c-3.72-1.15-7.45-2.3-11.17-3.45c-3.47-1.89-7.19-3.01-11.07-3.62
		c-18.79-6.55-38.04-11.15-57.99-11.33c-19.26-0.17-36.34,6.07-50.14,20.03c-1.29,1.31-3.31,2.81-2.42,4.5
		c0.84,1.6,2.94,2.62,5.22,2.58c4.26-0.08,8.56-0.3,12.77,0.13c22.38,2.29,41.25,10.3,51.32,32.22c1.08,4.52,2.16,9.05,3.23,13.57
		c1,21.96-7.79,39.71-23.21,54.8c-13,12.72-28.62,20.7-45.76,26.09c-6.13,1.14-12.27,2.27-18.4,3.41
		c-14.39-0.47-28.13-2.96-39.64-12.51c-2.49-3.48-4.98-6.96-7.47-10.45c-0.95-5.58-2.77-11.07-1.24-16.85
		c0.5-1.91,0.93-3.82,3.33-3.58c2.64,0.26,3.11,2.23,2.71,4.49c-0.78,4.39,0.52,8.36,2.4,12.22c1.44,4.33,3.65,8.03,8.16,9.84
		c3.69,3.3,8.21,4.65,12.92,5.64c12.05,2.53,23.73,0.26,35.38-2.56c0.28-0.32,0.55-0.63,0.83-0.95l-0.04,0.23
		c7.42-1.88,14.5-4.53,20.76-9.06c0.77-0.12,1.24-0.55,1.31-1.35l-0.08,0.05c1.83,0.49,3.2-0.58,4.6-1.43
		c10.99-6.67,20.72-14.83,27.81-25.61c4.32-6.58,8.61-13.43,7.91-21.93c1.79-5.7,1.25-11.26-0.99-16.72
		c-2.23-9.76-8.18-16.66-16.79-21.37c-12.76-6.99-26.47-8.28-40.66-6.43c-2.33,0.21-4.66,0.42-6.99,0.64
		c-3.2,0.69-7.88-0.67-8.79,3.7C1320.43,559.14,1321.18,570.79,1328.96,581.06z M1574.11,497.34c-4.43,3.03-8.9,6.02-12.31,10.27
		c-9.93,7.15-17.76,16.52-27.76,25.01c11.21,2.33,21.42,3.45,31.66,4.44c20.01,1.93,39.6,1.19,58.04-8.1
		c13.95-7.03,22.21-17.95,23.64-33.7c0.49-3.79-0.46-7.13-3.1-9.95c-7.09-9.71-17.26-9.9-27.56-8.24
		C1600.62,479.66,1586.9,487.62,1574.11,497.34z"/>
	<path class="st3" d="M1460.43,512.04c-3.96-0.9-7.9-1.83-11.32-4.19c6.37-6.52,12.73-13.03,19.46-19.92
		c-21.89-7.18-42.96-14.14-64.07-21c-28.21-9.17-56.66-17.53-86.58-18.47c-31.78-1-58.9,9.36-79.47,34.43
		c-1.09,1.33-2.89,2.45-2.39,5.15c16.6-1.07,33.18-0.96,49.46,3.31c16.57,4.34,30.77,12.48,42.04,25.49
		c-0.51,3.26-2.97,5.3-4.88,7.68c-8.07-9.74-18.49-15.79-30.5-19.26c-18.42-5.33-37.02-4.12-55.65-1.33
		c-10.14,1.52-8.93-0.03-10.14,10.23c-2.67,22.56,2.43,42.33,22.61,55.82c-1.25,2.33-3.01,4.17-5.26,5.55
		c-3.99-3-8.12-5.83-11.44-9.62c-13.77-15.74-15.73-34.56-13.85-54.22c0.38-4.03-0.25-4.16-3.82-3.3
		c-42.93,10.35-76.73,34.15-102.32,69.69c-15.1,20.96-20.56,44.82-18.67,70.4c2.27,30.85,28.77,57.88,62.71,63.6
		c34.35,5.78,67.45,0.56,99.53-12.36c6.53,1.94,13.06,3.87,19.58,5.81c-40.93,22.49-84.1,31.08-129.54,17.45
		c-33.43-10.03-54.94-32.12-58.96-68.21c-4.84-43.45,9.19-80.56,39.16-111.79c25.14-26.2,55.8-42.97,91.24-50.95
		c4.06-0.91,6.44-2.65,8.41-6.55c13.44-26.7,36.05-41.61,64.63-47.68c23.84-5.06,47.18-0.09,70.23,5.83
		c29.79,7.66,58.27,19.35,87.47,28.83c7.57,2.45,15.25,4.57,22.75,7.21c4.09,1.44,6.59,0.25,9.61-2.66
		c28.09-27.02,58.09-51.66,91.58-71.81c15.12-9.1,30.79-17.22,48.68-19.16c13.47-1.47,24.99,2.3,32.17,14.81
		c0.83,1.45,1.72,2.15,3.36,2.39c25.78,3.8,36.5,23.74,29.59,49.93c-4.47,16.93-15.72,28.53-30.54,37.08
		c-1.09-3.05-2.19-6.09-3.28-9.14c13.89-7.65,21.5-20.11,25.41-34.81c4.95-18.61-5.51-33.16-24.76-35.39
		c-13.2-1.53-25.81,1.09-37.96,6.02c-37.39,15.17-64.81,43.45-92.99,70.72c-2.13,2.06-1.48,2.97,1.24,3.35
		c5.13,0.72,10.23,1.57,15.35,2.37c-3.21,3.5-7.05,6.24-10.91,8.97c-3.98-0.82-7.97-1.56-11.93-2.48c-2.56-0.59-4.52-0.17-6.43,1.85
		c-6.45,6.85-13.09,13.52-19.65,20.27c-5.99-1.85-11.99-3.7-17.98-5.55c5.21-8.46,13.42-14.4,19.91-22.97
		c-5.1,0.4-9.13-4.69-13.49-0.05C1472.01,499.6,1466.23,505.83,1460.43,512.04z M1487.57,483.69c10.51,2.51,10.5,2.5,17.16-4.13
		c12.61-12.55,25.87-24.35,40.09-35.05c24.46-18.41,50.58-33.5,81.06-39.62c5.94-1.19,11.99-1.8,18.44-2.75
		c-2.98-3.86-6.83-4.95-10.79-5.75c-13.9-2.78-26.94,0.69-39.38,6.32C1552.75,421.45,1520.31,452.02,1487.57,483.69z"/>
	<path class="st2" d="M626.77,654.01c-6.81,6.48-13.27,13.37-21.48,18.2c-4.82,2.84-9.66,5.47-15.5,5.49
		c-8.81,0.03-13.7-5.55-12.38-14.31c1.77-11.68,7.38-21.64,14.13-31.02c7.54-10.47,16.51-19.58,27.82-25.95
		c10.24-5.77,20.89-8.9,31.8-1.34c1.19,0.82,1.97,0.86,2.65-0.38c3.07-5.63,8.42-3.43,12.97-3.64c2.92-0.14,2.74,1.61,1.49,3.65
		c-12.98,21.16-23.06,43.87-35.11,65.53c-4.14,7.45-8.27,14.88-13.17,21.86c-1.69,2.41-1.98,4.15,1.21,5.59
		c2.7,1.22,5.09,3,6.72,5.63c0.69,1.1,1.74,2.44,3.08,1.98c5.48-1.9,11.85-0.98,15.56-7.78c12.17-22.32,22.15-45.59,31.8-69.04
		c2.39-5.81,4.71-11.66,6.98-17.52c0.88-2.26,1.85-4.67-1.54-5.96c-1.06-0.4-1.99-1.22-1.41-2.55c0.51-1.15,1.68-1.39,2.82-1.39
		c4.08-0.01,8.16,0.13,12.23,0c4.65-0.15,4.93,2.2,3.47,5.64c-1.91,4.51-4.58,8.73-5.54,14.02c2.96-0.21,4.05-2.37,5.47-3.84
		c4.91-5.12,10.14-9.74,16.75-12.61c3.47-1.51,7.01-2.43,10.8-1.99c6.17,0.7,9.64,4.42,10.05,10.59c0.41,6.05-0.88,11.76-3.26,17.28
		c-7.81,18.07-18.85,33.5-35.98,43.95c-5.16,3.15-10.69,5.16-16.85,4.61c-4.72-0.42-7.92-4.1-7.24-8.07
		c0.31-1.83,1.26-3.17,3.15-3.35c1.8-0.16,2.87,1.24,2.98,2.72c0.49,6.83,4.96,5.37,8.79,4.02c6.49-2.29,11.34-6.85,15.24-12.45
		c9.13-13.1,16.03-27.11,16.49-43.44c0.22-7.71-3.25-9.69-10.15-6c-7.05,3.77-11.6,10.2-16.45,16.28
		c-8.28,10.39-13.69,22.31-19.06,34.34c-5.2,11.65-10.78,23.18-17.63,33.99c-2.21,3.48-1.48,4.3,2.4,4.27
		c5.34-0.05,10.76-0.67,15.97,1.3c3.6,1.36,6.58,3.42,8.28,6.96c1.22,2.54,0.71,4.78-1.76,6.21c-2.67,1.56-3.63-0.6-4.51-2.47
		c-3.59-7.63-17.61-10.39-24.23-8.15c-4.21,1.43-6.01,6.34-8.9,9.65c-7.63,8.7-16.75,14.44-28.37,15.84
		c-3.6,0.43-7.38,0.38-9.42-3.04c-2.31-3.88,0.1-7.26,2.76-9.89c2.34-2.31,5.17-4.19,8-5.91c2.18-1.32,3.16-2.9,2.97-5.41
		c-0.21-2.78-1.28-4.97-3.74-6.41c-2.9-1.7-3.93,0.71-5.26,2.4c-7.39,9.37-15.65,17.75-26.32,23.47
		c-11.07,5.93-22.84,8.63-35.34,7.49c-4.68-0.43-9.35-1.78-11.17-6.9c-1.74-4.9,0.26-9.11,3.41-12.78
		c9.21-10.74,21.89-14.85,35.05-17.72c7.58-1.66,15.33-2.7,23.14-2.27c3.53,0.2,5.88-0.83,7.75-3.97
		c6.73-11.29,13.76-22.4,18.25-34.85c0.39-0.5,1.01-0.96,0.25-1.63C627.36,653.28,627.06,653.65,626.77,654.01z M594.78,655.52
		c-0.18,9.34,3.41,11.87,10.54,9.08c2.39-0.94,4.72-2.2,6.81-3.68c14.98-10.65,25.33-25.16,33.91-41.08
		c1.04-1.92,1.71-4.11,2.16-6.26c1.01-4.83-1.01-7.85-5.91-8.85c-5.17-1.06-9.88,0.1-14.33,2.8c-9.08,5.5-15.93,13.24-21.57,22
		C600.88,638.07,595.69,646.86,594.78,655.52z M560.88,729.96c0.72-0.13,2.76-0.32,4.71-0.85c16.6-4.55,26.93-16.87,36.72-29.79
		c1.63-2.15,0.28-2.86-1.88-2.91c-5.02-0.11-10,0.19-14.87,1.42c-12.76,3.21-24.72,7.94-33,18.89c-2.09,2.76-4.26,5.89-2.23,9.65
		C552.32,730.1,556,729.98,560.88,729.96z M640.91,706.65c-5.89,1.06-10.58,1.09-10.59,8.12c0,3.69-5.65,5.96-7.42,3.24
		c-4.18-6.45-5.66-0.24-7.85,1.34c-2.03,1.46-3.18,3.92-1.76,6.39c1.65,2.86,4.52,2.24,6.96,1.35
		C629.89,723.58,635.22,715.77,640.91,706.65z M694.62,623.49c0.06-0.15,0.12-0.31,0.18-0.46c-0.13-0.04-0.35-0.16-0.39-0.12
		c-0.1,0.11-0.13,0.29-0.19,0.44C694.36,623.4,694.49,623.45,694.62,623.49z"/>
	<path class="st2" d="M476.97,439.9c-2.38,3.67-6.29,5.68-9.45,8.5c-3.54,3.16-7.43,5.31-6.44,11.48c0.67,4.19-5.98,6.18-9.65,2.72
		c-2.47-2.33-4.19-1.95-6.74-0.55c-56.74,31.07-112.69,63.46-163.97,103.08c-20.11,15.54-36.87,34.58-51.5,55.55
		c-18.15,26.01-29.24,54.67-34.43,85.69c-1.24,7.39-1.42,15.1,0.8,22.56c1.1,3.68,3.3,5.26,7.27,5.46
		c19.4,0.98,38.8,1.99,58.17,3.48c8.02,0.62,13.87,6.63,20.68,10.22c0.66,0.35,1.25,1.08,0.78,1.78c-0.34,0.5-1.2,0.88-1.84,0.9
		c-2.78,0.09-5.58,0.25-8.34,0c-20.17-1.84-40.38-0.63-60.57-0.74c-6.44-0.04-12.88,1.2-19.39,1.07
		c-9.07-0.18-12.65-3.07-14.81-11.74c-5.69-22.86,0.12-44.44,7.86-65.55c9.18-25.02,23.1-47.57,39.36-68.57
		c11.11-14.34,23.77-27.33,38.04-38.7c13.6-10.83,26.33-22.7,40.81-32.48c23.2-15.66,47.2-29.99,71.73-43.44
		c20.95-11.49,42.12-22.58,63.9-32.46c1.16-0.53,2.27-1.2,3.8-2.02c-4.59-4.74-10.45-7.13-15.28-10.91
		c1.57-2.19,3.14-4.39,4.72-6.58c6.62,1.33,12.77,3.8,17.65,8.52c2.74,2.65,4.98,2.68,8.29,1.07c6.08-2.96,11.66-7.08,18.49-8.4
		L476.97,439.9z"/>
	<path class="st4" d="M947.49,752.01c0.18-1.61,1.31-2.62,2.37-3.64c17.08-16.44,32.33-34.56,48-52.29
		c2.86-3.23,5.15-6.76,7.2-10.48c1.96-3.58,0.61-6.72-3.39-8.05c-6.49-2.16-13.11-1.64-19.71-0.7c-21.76,3.11-43.5,6.34-65.26,9.39
		c-6.45,0.9-12.54-1.01-18.22-3.8c-5.92-2.91-5.64-9.03-6.45-14.43c-0.52-3.5,1.31-8.42-2.79-9.89c-3.98-1.43-5.34,3.63-7.8,5.91
		c-6.1,5.65-11.9,11.77-20.43,13.77c-7.39,1.73-10.97-1.66-10.08-9.18c0.63-5.38,4.08-9.93,4.36-15.38
		c0.08-0.14,0.16-0.29,0.24-0.43c-0.09,0.14-0.17,0.28-0.26,0.42c-9.06,7.92-18.07,15.93-29.07,21.16
		c-4.62,2.19-9.91,5.81-14.43,1.47c-4.43-4.25-2.25-10.13-0.14-15.1c6.06-14.31,12.39-28.51,18.56-42.78
		c1.17-2.71,2.06-5.54,3.14-8.3c0.93-2.4,0.92-4.37-2.02-5.27c-1.09-0.33-2.26-0.84-1.92-2.22c0.33-1.36,1.69-1.24,2.77-1.24
		c4.08-0.03,8.16-0.01,12.24,0.01c5.48,0.02,6.15,0.78,4.03,5.7c-4.39,10.2-9.07,20.27-13.5,30.45c-2.81,6.44-6.21,12.65-8.03,19.48
		c-0.7,2.62-1.79,5.68,0.85,7.73c2.44,1.9,5.13,0.23,7.27-1.01c13.83-8.06,23.76-19.89,31.52-33.62c4.29-7.6,7.33-15.76,9.4-24.26
		c0.94-3.85,11.39-6.68,14.15-3.76c1.71,1.81,0.48,3.86-0.33,5.68c-5.98,13.54-11.97,27.08-18.02,40.59
		c-1.74,3.9-3.5,7.8-4.22,12.01c-0.66,3.89,1.15,5.33,4.79,3.74c4.3-1.87,7.9-4.72,10.83-8.44c2.59-3.29,5.6-6.3,10.31-4.95
		c5,1.43,8.45,4.43,8.68,10.17c0.08,2.01,0.59,4.03,1.13,5.98c1.44,5.16,4.34,8.03,10.27,8.19c11.38,0.32,22.44-2.29,33.7-2.96
		c15.7-0.93,31.28-3.05,46.88-4.96c6.79-0.83,13.74-0.41,20.15,2.58c5.84,2.73,7.59,6.47,5.05,12.46
		c-3.82,9.04-8.27,17.77-15.38,24.87c-15.74,15.7-31.42,31.46-50.79,42.84c-1.74,1.02-3.61,1.83-5.41,2.73L947.49,752.01z"/>
	<path class="st2" d="M1788.59,653.14c-8.26,7.18-15.93,14.62-25.47,19.76c-3.94,2.13-7.98,3.76-12.62,3.71
		c-8.82-0.11-13.46-5.14-12.04-13.87c3.31-20.43,15.32-35.68,30.07-49.15c4.66-4.26,9.94-7.72,15.75-10.3
		c9.38-4.16,18.74-5.94,27.84,0.62c1.56,1.12,2.16,0.6,2.99-0.69c3.51-5.42,9-3.1,13.72-3.2c2.6-0.06,1.42,1.78,0.61,3.08
		c-11.67,18.92-20.84,39.18-31.5,58.63c-5.43,9.9-10.57,19.95-17.06,29.22c-1.94,2.77-2.1,4.4,1.38,5.76
		c5.09,1.99,7.51,6.39,9.3,11.18c1.1,2.95,0.79,5.9-1.24,8.39c-1.37,1.68-3.17,2.38-5.45,1.66c-2.21-0.69-2.75-2.21-2.69-4.25
		c0.08-2.96,0.08-5.92,0.14-8.88c0.06-3.12-1.4-5.47-4.14-6.65c-2.97-1.29-3.71,1.72-4.96,3.3c-12.22,15.42-26.93,26.95-47,30.06
		c-5.87,0.91-11.82,1.31-17.62-0.42c-8.81-2.63-11.13-8.85-6.1-16.63c5.17-7.99,13.14-12.35,21.7-15.66
		c12.22-4.73,24.98-6.83,38.06-6.54c3.81,0.08,6.11-1.21,8.1-4.42c6.34-10.25,11.91-20.89,17.13-31.74
		C1787.95,655.16,1788.23,654.13,1788.59,653.14z M1755.42,655.36c-0.02,8.02,2.97,10.44,9.18,8.61c2.62-0.77,5.11-2.17,7.47-3.59
		c7.06-4.25,12.6-10.19,17.87-16.42c7.08-8.36,13.38-17.25,17.81-27.3c3.84-8.7-0.33-14.29-9.79-13.36
		c-3.94,0.39-7.45,2.06-10.73,4.23c-9.93,6.6-17,15.73-23.04,25.8C1759.8,640.69,1756.12,648.27,1755.42,655.36z M1757.62,695.38
		c-11.43,0.67-22.17,3.7-32.03,9.55c-5.43,3.22-10.5,6.95-13.51,12.75c-3.39,6.53-0.84,10.92,6.49,11.16
		c2.77,0.09,5.51-0.11,8.21-0.92c16.39-4.87,26.81-16.99,36.54-29.94c1.08-1.43,0.49-2.46-1.27-2.59
		C1760.58,695.29,1759.1,695.38,1757.62,695.38z"/>
	<path class="st3" d="M432.48,438.65c-1.57,2.19-3.14,4.39-4.72,6.58c-27.99,0.81-55.97-0.9-83.96-0.62
		c-4.08,0.04-8.21-0.45-12.22,0.04c-6.77,0.83-9.97-3.11-12.76-8c0.99-1.82,2.46-1.22,3.62-1.28c11.15-0.56,21.74-2.75,32.05-7.53
		c15.73-7.29,31.77-13.99,47.99-20.1c8.73-3.29,12.15-9.08,11.95-17.63c-0.25-11.22,7.99-16.31,18.95-16.83
		c0.96,1.18,1.93,2.37,2.89,3.55c-7.27,12.68-2.31,26.26-2.85,39.42C433.12,423.72,434.51,431.25,432.48,438.65z"/>
	<path class="st2" d="M793.22,599.88c-12.86-9.12-25.56-15.66-41.03-15.65c-10.15,0.01-20.37,1.1-30.48-0.84
		c-4.23-0.81-8.26-2.72-9.31-6.86c-1.13-4.45,2.54-7.29,5.87-9.86c3.42-2.64,7.94-4.76,6.58-10.42c-1.28-5.29-5.96-9.61-12.25-9.57
		c-22.9,0.13-45.96-2.28-68.58,3.59c-4.34,1.13-8.71,1.38-13.24-1.27c3.43-3.8,8.07-4,12.21-4.48c12.66-1.45,25.05-4.58,37.86-5.26
		c16.82-0.89,33.29-0.95,48.71,7.32c9.93,5.32,12.02,14.08,4.94,22.84c-0.58,0.72-1.2,1.41-1.86,2.06c-1.4,1.37-2.42,2.93-1.67,4.93
		c0.79,2.09,2.76,2.29,4.63,2.31c5.56,0.06,11.13,0.15,16.68,0.03c18.83-0.42,34.36,7.65,48.75,18.71c1.47,1.13,2.88,2.33,4.39,3.39
		c7.21,5.09,8.39,9.42,3.27,16.77c-11.19,16.09-26.86,25.19-46.29,27.38c-4.72,0.53-5.81,2.8-6.16,6.68
		c-1.15,12.71,5.5,18.06,17.73,14.1c10.58-3.43,17.66-11.19,24.15-19.67c0.95-1.25,1.77-3.52,3.74-2.24
		c1.88,1.22,0.49,3.11-0.47,4.37c-10.53,13.87-22.71,25.38-40.78,28.6c-17.78,3.17-26.72-6.42-20.23-23.23
		c9.32-24.19,24.8-43.17,50.18-52.34C791.22,601.03,791.81,600.63,793.22,599.88z M792.55,605.32c-2.1-0.11-4.35,0.7-6.49,1.87
		c-12.64,6.91-20.01,18.31-25.87,30.85c-1.92,4.12,1.09,4.22,3.99,3.8c13.44-1.96,30.07-16.96,33.51-30.2
		C798.86,607.13,797.51,605.33,792.55,605.32z"/>
	<path class="st2" d="M1621.92,615.26c5.97-3.98,11.81-8.16,18.33-11.22c4.56-2.14,9.18-3.85,14.16-4.73
		c11.45-2.01,17.56,4.39,14.76,15.71c-1.98,8.01-5.87,15.19-10.34,22.01c-8.8,13.43-19.21,25.36-33.02,33.95
		c-3.47,2.16-7.05,4.14-10.96,5.34c-14.32,4.38-23.4-3.42-21.52-18.33c1.65-13.1,4.71-25.85,10-37.95
		c10.52-24.07,23.79-46.44,42.22-65.41c15.44-15.9,33.96-22.78,56.34-19.69c9.37,1.3,19.41,2.3,27.18-5.68
		c0.65-0.66,1.53-1.29,2.43-0.7c0.89,0.59,0.78,1.72,0.36,2.53c-0.77,1.46-1.55,3-2.68,4.17c-5.85,6.08-12.61,10.9-20.67,13.61
		c-4.89,1.64-9.71,1.54-14.53-0.87c-16.57-8.27-29.14-6.1-42.56,7.46c-10.63,10.74-16.71,24.32-22.65,37.89
		c-3,6.87-5.45,13.98-8.15,20.98C1621.06,614.64,1621.49,614.95,1621.92,615.26z M1653.07,614.77c0.11-7.17-3.72-9.8-9.83-7.17
		c-8.78,3.78-16.3,9.45-23.3,15.9c-2.53,2.33-4.31,5.04-5.45,8.24c-3.55,9.96-6.43,20.08-7.16,30.7c-0.23,3.35-2.42,7.26,1.55,9.64
		c3.99,2.4,7.47-0.43,10.84-2.16c3.14-1.62,5.82-3.95,8.22-6.56c9-9.79,15.89-20.91,20.8-33.24
		C1650.79,624.95,1652.53,619.67,1653.07,614.77z"/>
	<path class="st2" d="M534.77,631.06c11.2,3.21,16.56-2.46,19.21-12.48c0.7-2.66,2.14-5.13,2.87-7.79c0.64-2.34,0.89-4.85-2.14-6.08
		c-1.03-0.42-2.14-1-1.58-2.42c0.49-1.22,1.69-1.32,2.81-1.33c4.08-0.01,8.16,0.16,12.23,0c4.98-0.19,5.24,2.26,3.59,5.91
		c-3.64,8.1-7.41,16.14-10.95,24.28c-3.97,9.15-7.83,18.36-11.53,27.63c-0.75,1.88-2.35,4.5-0.01,6.12
		c2.23,1.55,4.61-0.03,6.69-1.29c4.18-2.52,7.53-5.97,10.65-9.66c0.98-1.16,2.09-2.54,3.66-1.39c1.4,1.02,0.35,2.45-0.37,3.43
		c-6.4,8.76-13.71,16.54-23.9,20.99c-3.63,1.58-7.58,2.9-11.01-0.12c-3.21-2.83-2.47-6.6-1.57-10.34c2.02-8.34,5.58-16.05,9.33-23.7
		c3.61-7.36,3.6-7.35-4.28-7.37c-5.19-0.01-10.39,0.16-15.56-0.14c-3.75-0.22-5.77,1.29-7.17,4.64
		c-4.59,10.91-9.34,21.75-14.08,32.6c-0.8,1.82-1.27,4.07-3.44,4.82c-3.31,1.14-7.09,2.81-10.05,0.27
		c-3.01-2.59,0.16-5.46,1.21-7.98c7.69-18.43,17.03-36.15,24.02-54.88c1.32-3.54,5.36-7.86-1.19-11.26
		c-1.75-0.91,0.39-2.47,1.92-2.51c4.81-0.11,9.64-0.25,14.44,0.02c4.24,0.24,2.66,3.05,1.77,5.23c-2.72,6.68-5.48,13.34-8.31,19.97
		c-1.45,3.41-0.96,5.18,3.27,4.87C528.46,630.88,531.62,631.06,534.77,631.06z"/>
	<path class="st2" d="M1854.31,632.4c6.93-3.08,12.44-5.61,18.03-7.97c4.13-1.75,8.49-2.5,13-2.39c7.67,0.2,10.61,4.22,8.43,11.7
		c-1.8,6.16-5.26,11.44-9.35,16.24c-10.72,12.57-22.73,23.34-39.58,26.98c-0.54,0.12-1.07,0.32-1.61,0.41
		c-14.09,2.41-19.42-3.7-14.82-17.18c4.31-12.64,10.67-24.37,16.42-36.37c2.23-4.66,4.22-9.46,5.92-14.33
		c0.79-2.27,1.78-5.26-2.12-6.25c-0.96-0.25-1.75-0.81-1.52-1.92c0.22-1.05,1.18-1.4,2.13-1.41c5.37-0.03,10.75-0.28,16.1,0.08
		c3.8,0.25,2.34,3.06,1.49,4.97c-2.79,6.24-5.76,12.4-8.63,18.61C1857.04,626.05,1855.98,628.58,1854.31,632.4z M1842.19,662.98
		c-0.2,5.92,2.22,8.01,8.32,6.48c15.24-3.83,22.78-14.86,26.34-29.2c2.34-9.41-1.16-12.59-10.46-9.6
		C1852.14,635.25,1844.58,647.76,1842.19,662.98z"/>
	<path class="st2" d="M1579.32,599.93c1.45,0,3.32-0.18,5.15,0.03c6.55,0.75,9.9,5.69,7.56,11.86
		c-4.24,11.18-13.32,17.93-23.1,23.86c-8.06,4.88-16.87,7.64-26.23,8.37c-3.01,0.23-4.18,1.46-4.75,4.21
		c-0.61,2.95-0.85,5.9-0.4,8.82c0.89,5.75,4,8.4,9.82,8.53c11.95,0.27,19.92-6.85,27.32-14.9c1.87-2.04,3.45-4.34,5.17-6.52
		c0.8-1.01,1.63-2.41,3.11-1.52c1.67,1.01,1.13,2.62,0.19,3.86c-10.25,13.57-22.07,25.04-39.45,28.86c-2.87,0.63-5.87,1.08-8.8,1.02
		c-11.19-0.21-16.93-7.54-14.76-18.44c2.26-11.38,7.95-21.07,14.99-30.02c7.95-10.11,16.94-19.07,28.79-24.73
		C1568.71,600.95,1573.54,599.29,1579.32,599.93z M1574.49,604.2c-2.79-0.03-4.58,0.29-7.41,1.98c-12.1,7.2-19.85,18.05-25.51,30.61
		c-1.84,4.09,0.53,4.38,3.67,3.95c13.68-1.91,30.53-17.23,33.84-30.66C1580.09,605.98,1578.8,604,1574.49,604.2z"/>
	<path class="st2" d="M1668.64,658.63c0.26-7.65,5.39-16.64,11.21-25.29c8.71-12.94,19.44-23.69,33.62-30.75
		c6.5-3.23,13.29-3.29,20.1-2.47c6.21,0.75,8.97,6.23,6.87,12.55c-1.32,3.95-3.81,7.27-6.64,10.16
		c-10.62,10.83-22.98,18.59-38.41,20.51c-8.86,1.1-9.67,2.22-9.07,12.51c0.41,7.06,3.62,9.76,11.24,9.79
		c7.35,0.03,13.18-3.4,18.45-7.96c4.48-3.88,8.58-8.16,12.09-12.99c0.85-1.17,1.91-3.35,3.89-1.61c1.51,1.32,0.19,2.74-0.65,3.91
		c-10.62,14.76-23.86,25.72-42.32,29.13c-4.11,0.76-8.14,0.32-12.09-0.85C1671.19,673.56,1668.57,669.24,1668.64,658.63z
		 M1727.81,608.76c0.25-3.22-1.09-4.62-4.21-4.58c-3.63,0.05-6.86,1.16-9.9,3.1c-11.18,7.14-18.11,17.64-23.55,29.38
		c-2.09,4.5,0.12,4.51,3.59,4.04c7.85-1.08,14.27-5.08,20.05-10.02C1720.64,624.81,1725.52,617.5,1727.81,608.76z"/>
	<path class="st3" d="M830.81,485.85c0,3.14-0.2,6.3,0.06,9.42c0.24,2.82-1.93,6.73,3.45,7.63c1.41,0.24,0.68,3,0.74,4.61
		c0.09,2.4-0.22,4.84,0.08,7.2c0.58,4.54-1.04,6.05-5.73,5.95c-3.93-0.09-4.87-1.57-4.38-4.9c0.55-3.78-0.81-5.26-4.81-5
		c-5.16,0.33-10.37,0.33-15.53,0c-3.96-0.25-5.46,1.16-4.82,4.97c0.66,3.99-1.15,4.99-4.93,4.88c-3.48-0.1-5.79-0.45-5.19-4.76
		c0.28-1.99,0-4.06,0.06-6.09c0.1-3.25-0.11-5.81,3.23-8.77c3.91-3.47,4.13-10.02,5.2-15.44c0.64-3.25,1.33-6.63,1.09-9.88
		c-0.41-5.54,1.49-7.35,7.11-6.86c6.43,0.56,12.95,0.34,19.42,0.05c3.75-0.16,5.4,0.73,5.04,4.81
		C830.53,477.7,830.81,481.79,830.81,485.85z M819.82,490c0-3.14-0.15-6.28,0.04-9.41c0.19-3.05-1.65-3.57-3.8-3.01
		c-2.21,0.57-5.94-2.32-6.44,2.58c-0.68,6.63-2.16,13.1-4.68,19.27c-0.98,2.39-0.21,2.68,1.98,2.88c12.9,1.18,12.9,1.23,12.9-11.75
		C819.83,490.37,819.83,490.19,819.82,490z"/>
	<path class="st3" d="M857.05,491.18c4.08-6.31,8.14-12.63,12.25-18.92c1.78-2.73,10.22-4.78,12.82-3.14
		c1.37,0.86,0.97,2.29,0.97,3.52c0.03,11.46-0.2,22.92,0.12,34.36c0.13,4.73-2.73,3.82-5.38,3.83c-2.84,0.01-6.04,0.92-5.79-4.06
		c0.34-6.81,0.09-13.66-0.92-21.02c-4.11,6.54-8.61,12.88-12.21,19.7c-2.5,4.74-5.8,5.96-10.69,5.48c-2.35-0.23-3.22-0.83-3.2-3.22
		c0.08-11.82,0.15-23.65-0.03-35.47c-0.07-4.55,3.03-3.22,5.3-3.24c2.29-0.02,5.42-1.25,5.26,3.28c-0.23,6.21-0.06,12.43-0.06,18.65
		C856.01,491,856.53,491.09,857.05,491.18z"/>
	<path class="st3" d="M891.68,510.18c3.93-5.61,7.69-10.97,11.53-16.44c-3.7-2.37-6.51-5.11-7.39-9.47
		c-1.29-6.44,2.02-12.63,8.36-14.29c8.18-2.14,16.6-0.72,24.9-1.02c2.31-0.08,2.04,1.73,2.04,3.12c0.04,11.84-0.08,23.69,0.08,35.53
		c0.06,4.04-2.59,3.41-4.82,3.16c-2.31-0.26-6.08,1.84-6.07-3.1c0.01-2.59,0.07-5.18-0.04-7.77c-0.07-1.53,0.65-3.61-1.71-4.11
		c-2.08-0.44-4.02-0.18-5.32,1.92c-1.16,1.89-2.86,3.51-3.71,5.51C906.1,511.29,899.8,512.04,891.68,510.18z M920.33,482.56
		c-0.34-2.52,1.37-6.44-3.87-5.81c-3.92,0.47-8.97-0.4-9.06,5.57c-0.09,5.61,4.53,5.12,8.42,5.56
		C920.2,488.37,920.86,486.11,920.33,482.56z"/>
	<path class="st3" d="M696.73,482.49c-12.19-7.12-17.17-7.48-21.75-2.09c-4,4.7-4.18,13.75-0.39,18.65
		c4.35,5.61,9.58,5.39,21.21-0.92c2.63,8.62,1.14,11.17-7.51,12.89c-17.24,3.42-28.29-5.56-27.73-22.67
		c0.25-7.69,3.15-14.06,10.39-17.63c8.02-3.95,16.36-3.57,24.01,0.42C699.04,473.26,696.09,478.05,696.73,482.49z"/>
	<path class="st3" d="M744.09,469.62c8.48-2.48,13.73-0.04,16.41,7.9c1.17,3.45,3.3,6.57,5.48,10.78
		c2.57-5.91,4.79-11.08,7.08-16.22c1.16-2.6,9.58-4.65,11.57-2.85c1.07,0.97,0.3,2.02-0.13,2.98c-4.93,10.74-9.66,21.58-14.91,32.16
		c-2.91,5.85-14.32,9.39-19.61,6.4c-2.83-1.59-1.06-4.7-1.27-7.1c-0.2-2.28,1.64-1.93,3.12-1.82c0.92,0.07,1.85,0.18,2.77,0.17
		c5.75-0.07,6.43-1.24,3.65-6.39C753.61,487.04,748.92,478.49,744.09,469.62z"/>
	<path class="st3" d="M1383.94,671.92c4.1-5.14,8.91-9.51,14.42-13.1c-0.61,7.85-2.08,15.7,0.89,23.46
		c3.35,8.77,8.77,12.72,18.05,12.17c9.81-0.59,17.85-5.12,24.69-11.98c3.8,1.7,7.61,3.41,11.41,5.11
		c-8.42,6.04-17.07,11.51-27.51,13.62c-23.33,4.73-37.08-4.45-41.25-27.82C1384.55,672.87,1384.18,672.41,1383.94,671.92z"/>
	<path class="st4" d="M517.52,751.3c-39.47,1.47-78.9-0.72-118.5-0.98c4.86-2.56,9.19-5.99,14.99-5.99
		c27.95,0.04,55.9-0.04,83.83,1.14C504.74,745.77,510.87,749.31,517.52,751.3z"/>
	<path class="st3" d="M721.58,468.93c4.99,0,9.99,0.18,14.97-0.06c3.59-0.18,3.25,2.05,3.2,4.28c-0.05,2.11,0.59,4.24-3.06,4.45
		c-9.56,0.54-9.55,0.74-9.55,10.55c0,6.28-0.22,12.57,0.07,18.83c0.24,5.19-3.33,3.72-5.98,3.83c-2.64,0.11-5.58,0.9-5.36-3.79
		c0.35-7.37,0.09-14.77,0.09-22.15c0-7.32-0.01-7.49-7.31-7.29c-3.97,0.11-6.33-0.42-5.78-5.28c0.31-2.69,1.22-3.45,3.73-3.39
		C711.6,469.02,716.59,468.93,721.58,468.93z"/>
	<path class="st4" d="M462.38,385.2c5.06,1.02,9.89-0.94,14.87-0.97c2.92-0.02,6.05-0.51,6.99,3.58c0.97,4.24,0.79,8.33-3.1,10.83
		c-4.8,3.08-10,5.54-15.02,8.29c-1.44,0.79-2.84,0.95-4.07-0.28c-3.76-3.78-8.68-6.18-11.91-10.64c-3.57-4.92-2.53-8.85,3.43-10.14
		C456.42,385.26,459.44,385.4,462.38,385.2z"/>
	<path class="st2" d="M907.87,560.26c-10.48,13.98-31.52,23.04-44.8,19.58c-7.38-1.92-10.06-5.37-10.16-12.41
		c-0.05-3.27,0.69-5.34,4.4-5.53c1.63-0.08,3.3-0.55,4.85-1.12c3.76-1.36,5.26-0.52,5.3,3.83c0.08,7.06,4.87,10.39,11.95,9.05
		c5.64-1.07,10.57-3.78,14.54-7.62C897.82,562.3,902.15,560.69,907.87,560.26z"/>
	<path class="st3" d="M1462.6,678.93c-6.82,2.48-11.26,1.01-12.43-4.14c2.37-2.41,5.34-2.66,8.52-2.53
		C1464.75,672.49,1465.37,673.48,1462.6,678.93z"/>
	<path class="st3" d="M1384.95,657.78c1.98-18.37,9.4-34.84,18.14-50.75c16.18-29.46,36.85-55.72,58.79-81.04
		c1.08-1.25,2.16-2.51,3.23-3.77c6.09,1.98,12.44,3.21,18.12,6.36c-18.35,19.52-35.08,40.35-50.44,62.27
		c-9.51,13.58-18.66,27.4-25.06,42.81c0,0-0.09,0.32-0.09,0.33c-0.21,0.57-0.42,1.13-0.62,1.69
		C1401.12,644.5,1393.38,651.49,1384.95,657.78z"/>
	<path class="st3" d="M1222.69,665.44c-16.4,0.97-32.1-1.35-46.56-9.69c-16.72-9.64-24.2-24.73-21.55-43.73
		c0.29-2.11,0.16-4.87,3.49-4.51c2.79,0.3,3.49,2.35,3.24,4.87c-2.08,21.25,12.21,37.28,33.83,40.6c8.26,1.27,16.57,1.66,24.91,0.66
		C1220.92,657.58,1221.8,661.51,1222.69,665.44z"/>
	<path class="st3" d="M1334.83,646.66c5.15-7.62,12.18-13.64,17.83-20.84c14.46-18.43,28.99-36.8,43.5-55.2
		c2.24,5.46,2.78,11.02,0.99,16.72c-1.56,1.79-3.17,3.54-4.68,5.37c-11.89,14.52-23.77,29.06-35.65,43.59c0,0,0.08-0.05,0.08-0.05
		c-0.44,0.45-0.87,0.9-1.31,1.35C1349.34,642.13,1342.25,644.78,1334.83,646.66z"/>
	<path class="st3" d="M1647.38,495.25c-27.15,13.65-55.9,16.21-85.58,12.35c3.42-4.25,7.88-7.24,12.31-10.27
		c2.03,0.09,4.06,0.17,6.1,0.27c22.37,1.15,43.91-2,64.07-12.3C1646.92,488.12,1647.87,491.46,1647.38,495.25z"/>
	<path class="st3" d="M1401.64,563.28c13.74-16.05,26.89-32.6,41.23-48.14c3.89,0.61,7.6,1.73,11.07,3.62
		c-16.96,18.86-33.23,38.29-49.07,58.09C1403.79,572.32,1402.72,567.8,1401.64,563.28z"/>
	<path class="st3" d="M1332.12,595.25c-11.14,20.42-27.16,36.24-46.38,49.04c-4.51-1.8-6.72-5.5-8.16-9.83
		c17.12-9.83,32.08-22.1,43.33-38.5c1.54-2.25,2.73-4.75,4.08-7.13C1327.66,590.66,1330.54,592.24,1332.12,595.25z"/>
	<path class="st3" d="M1271.62,692.3c16.73-8.27,32.14-18.48,45.87-31.15c6.14-1.14,12.27-2.27,18.41-3.41
		c-11.59,12.72-24.7,23.71-38.48,33.95c-1.02,0.76-1.96,1.63-2.94,2.44C1286.8,694.31,1279.06,695.22,1271.62,692.3z"/>
	<path class="st3" d="M1277.86,648.63c-14.75,7.36-29.87,13.6-46.39,15.74c-2.21-3.62-3.72-7.49-4.17-11.73
		c15.21-2.32,29.41-7.6,43.09-14.46C1272.88,641.67,1275.37,645.15,1277.86,648.63z"/>
	<path class="st3" d="M1338.71,542.81c3.05,13.04,2.12,25.92-1.6,38.69c-0.56,1.93-1.01,3.9-1.51,5.86
		c-3.81-0.42-4.94-3.65-6.65-6.29c4.87-12.25,5.19-24.83,2.77-37.62C1334.06,543.24,1336.39,543.02,1338.71,542.81z"/>
	<path class="st3" d="M1261.28,574.33c5.6,2.05,11.29,1.54,16.95,0.48c2.72-0.51,5.34-1.5,8.03-2.2c1.71-0.45,3.91-1.6,4.93,0.52
		c0.99,2.06-0.99,3.27-2.57,4.29c-7.79,5.04-16.2,7.12-25.42,5.27c-2.9-0.58-5.78-1.23-8.67-1.84
		C1255.62,577.47,1258.42,575.87,1261.28,574.33z"/>
	<path class="st3" d="M1543.04,505.49c-1.74-0.44-3.49-0.87-5.23-1.31c3.89-3.61,7.36-7.8,12.75-9.38c1.8,0.27,3.61,0.53,5.42,0.8
		C1552.01,499.35,1547.75,502.71,1543.04,505.49z"/>
	<path class="st3" d="M1399.23,657.87c-0.33,0.35-0.67,0.7-1,1.05C1398.56,658.57,1398.89,658.22,1399.23,657.87z"/>
	<path class="st3" d="M1334.04,647.38c0.62-0.01,0.96-0.28,0.83-0.95C1334.6,646.74,1334.32,647.06,1334.04,647.38z"/>
</g>
</svg>
