<?xml version="1.0" encoding="utf-8"?>
<!-- Generator: Adobe Illustrator 24.3.0, SVG Export Plug-In . SVG Version: 6.00 Build 0)  -->
<svg version="1.1" id="СТРЕЛКА_ВНИЗ_1_" xmlns="http://www.w3.org/2000/svg" xmlns:xlink="http://www.w3.org/1999/xlink"
	 x="0px" y="0px" viewBox="0 0 30.2 30" style="enable-background:new 0 0 30.2 30;" xml:space="preserve">
<style type="text/css">
	.st0{fill-rule:evenodd;clip-rule:evenodd;fill:#FFFFFF;}
</style>
<path id="СТРЕЛКА_ВНИЗ" class="st0" d="M15.1,30c-8.3-0.1-15-6.8-14.9-15.1C0.3,6.6,7-0.1,15.3,0
	C23.6,0,30.2,6.7,30.2,15C30.2,23.3,23.4,30,15.1,30z M15.1,1.4C7.6,1.4,1.5,7.6,1.6,15.1c0.1,7.5,6.2,13.6,13.7,13.5
	c7.5-0.1,13.5-6.1,13.5-13.6C28.8,7.4,22.7,1.3,15.1,1.4z M15.1,25.8L5.3,8.9l9.9,5.9l9.6-5.9L15.1,25.8z"/>
</svg>
