<?xml version="1.0" encoding="utf-8"?>
<!-- Generator: Adobe Illustrator 24.3.0, SVG Export Plug-In . SVG Version: 6.00 Build 0)  -->
<svg version="1.1" id="СТРЕЛКА_ВВЕРХ_1_"
	 xmlns="http://www.w3.org/2000/svg" xmlns:xlink="http://www.w3.org/1999/xlink" x="0px" y="0px" viewBox="0 0 30.2 30"
	 style="enable-background:new 0 0 30.2 30;" xml:space="preserve">
<style type="text/css">
	.st0{fill-rule:evenodd;clip-rule:evenodd;fill:#FFFFFF;}
</style>
<path id="СТРЕЛКА_ВВЕРХ" class="st0" d="M15.1,0C6.8,0,0.2,6.8,0.2,15.1C0.3,23.4,7,30,15.3,30
	c8.2-0.1,14.9-6.8,14.9-15C30.2,6.7,23.4,0,15.1,0z M15.1,28.6C7.6,28.6,1.5,22.4,1.6,14.9C1.6,7.4,7.8,1.3,15.3,1.4
	C22.8,1.4,28.8,7.5,28.8,15C28.8,22.5,22.7,28.6,15.1,28.6z M15.1,4.2L5.3,21.1l9.9-5.9l9.6,5.9L15.1,4.2z"/>
</svg>
