<svg id="КАЛЕНДАРЬ" xmlns="http://www.w3.org/2000/svg" viewBox="0 0 33 33">
  <defs>
    <style>
      .cls-1 {
        fill: #fde8ca;
      }
    </style>
  </defs>
  <path class="cls-1" d="M29.91,33H3.09A3.1,3.1,0,0,1,0,29.91V6.19a3.1,3.1,0,0,1,3.09-3.1H7.22V5.16H2.06V30.94H30.94V5.16H25.78V3.09h4.13A3.09,3.09,0,0,1,33,6.19V29.91A3.1,3.1,0,0,1,29.91,33ZM21.66,12.37h4.12v3.1H21.66v-3.1Zm4.12,13.41H21.66V22.69h4.12v3.09Zm-4.12-8.25h4.12v3.09H21.66V17.53ZM23.2,8.25A1.54,1.54,0,0,1,21.66,6.7V1.55a1.55,1.55,0,1,1,3.09,0V6.7A1.54,1.54,0,0,1,23.2,8.25Zm-8.76,4.12h4.12v3.1H14.44v-3.1Zm4.12,13.41H14.44V22.69h4.12v3.09Zm-4.12-8.25h4.12v3.09H14.44V17.53ZM12.38,3.09h8.24V5.15H12.38V3.09ZM7.22,22.69h4.12v3.09H7.22V22.69Zm0-5.16h4.12v3.09H7.22V17.53Zm0-5.16h4.12v3.1H7.22v-3.1ZM9.8,8.25A1.54,1.54,0,0,1,8.25,6.7V1.55a1.55,1.55,0,1,1,3.09,0V6.7A1.54,1.54,0,0,1,9.8,8.25Z" transform="translate(0)"/>
</svg>
